<svg width="20" height="20" viewBox="0 0 20 20" fill="none" xmlns="http://www.w3.org/2000/svg">
<path d="M14.3558 0H4.78527C2.1536 0 0 2.1536 0 4.78527V14.3563C0 16.9872 2.1536 19.1415 4.78527 19.1415H14.3558C16.9875 19.1415 19.1411 16.9872 19.1411 14.3563V4.78527C19.1411 2.1536 16.9875 0 14.3558 0ZM17.5459 14.3563C17.5459 16.1149 16.1154 17.5464 14.3558 17.5464H4.78527C3.02645 17.5464 1.59517 16.1149 1.59517 14.3563V4.78527C1.59517 3.02621 3.02645 1.59517 4.78527 1.59517H14.3558C16.1154 1.59517 17.5459 3.02621 17.5459 4.78527V14.3563Z" fill="black"/>
<path d="M6.89866 13.8792H4.90878V7.43026H6.89866V13.8792ZM7.09708 5.37574C7.09708 4.73 6.57516 4.20581 5.93243 4.20581C5.2897 4.20581 4.76636 4.73 4.76636 5.37574C4.76636 6.02149 5.28685 6.54568 5.93243 6.54568C6.57801 6.54568 7.09737 6.02149 7.09737 5.37574H7.09708ZM14.3462 10.3314C14.3462 8.60019 13.9818 7.3164 11.9672 7.3164C10.9992 7.3164 10.3494 7.80235 10.0839 8.30771H10.0819V7.43054H8.14916V13.8794H10.0822V10.6775C10.0822 9.83889 10.2948 9.0265 11.3304 9.0265C12.366 9.0265 12.3848 9.98556 12.3848 10.7306V13.8792H14.3462V10.3311V10.3314Z" fill="black"/>
</svg>
