<svg width="20" height="20" viewBox="0 0 20 20" fill="none" xmlns="http://www.w3.org/2000/svg">
<path d="M15.2147 0H5.64415C3.01249 0 0.858887 2.1536 0.858887 4.78527V14.3563C0.858887 16.9872 3.01249 19.1415 5.64415 19.1415H15.2147C17.8464 19.1415 20 16.9872 20 14.3563V4.78527C20 2.1536 17.8464 0 15.2147 0ZM18.4048 14.3563C18.4048 16.1149 16.9743 17.5464 15.2147 17.5464H5.64415C3.88533 17.5464 2.45405 16.1149 2.45405 14.3563V4.78527C2.45405 3.02621 3.88533 1.59517 5.64415 1.59517H15.2147C16.9743 1.59517 18.4048 3.02621 18.4048 4.78527V14.3563Z" fill="black"/>
<path d="M15.6143 5.5827C16.275 5.5827 16.8106 5.04709 16.8106 4.38638C16.8106 3.72567 16.275 3.19006 15.6143 3.19006C14.9536 3.19006 14.418 3.72567 14.418 4.38638C14.418 5.04709 14.9536 5.5827 15.6143 5.5827Z" fill="black"/>
<path d="M10.4293 4.78528C7.78592 4.78528 5.64404 6.92739 5.64404 9.57055C5.64404 12.2127 7.78592 14.3563 10.4293 14.3563C13.072 14.3563 15.2146 12.2127 15.2146 9.57055C15.2146 6.92739 13.072 4.78528 10.4293 4.78528ZM10.4293 12.7611C8.66759 12.7611 7.23921 11.3327 7.23921 9.57055C7.23921 7.80836 8.66759 6.38045 10.4293 6.38045C12.191 6.38045 13.6194 7.80836 13.6194 9.57055C13.6194 11.3327 12.191 12.7611 10.4293 12.7611Z" fill="black"/>
</svg>
