<svg width="738" height="125" viewBox="0 0 738 125" fill="none" xmlns="http://www.w3.org/2000/svg">
<path d="M76.6459 124.445C61.8591 124.445 48.6482 121.861 37.0132 116.701C25.3783 111.54 16.306 104.363 9.78216 95.177C3.26545 85.984 0 75.5204 0 63.779C0 52.0375 3.28675 40.9492 9.86735 31.4936C16.4409 22.0308 25.6267 14.641 37.4249 9.31687C49.2232 3.98566 62.6186 1.32361 77.6255 1.32361C88.1673 1.32361 98.1127 2.81436 107.469 5.81006C116.818 8.79866 124.698 12.987 131.115 18.3679C137.525 23.7488 141.77 29.8111 143.836 36.5479L122.476 41.439C121.17 36.9809 118.259 33.0411 113.751 29.6195C109.237 26.1908 103.834 23.5358 97.5235 21.6262C91.2197 19.7237 84.6391 18.7725 77.7959 18.7725C67.0341 18.7725 57.4933 20.6466 49.1806 24.3948C40.8608 28.15 34.3654 33.4244 29.6943 40.2109C25.0162 47.0045 22.6807 54.6996 22.6807 63.2891C22.6807 71.8787 25.2363 79.3751 30.3474 86.1189C35.4586 92.8628 42.4935 98.1372 51.4593 101.935C60.4322 105.74 70.5622 107.643 81.8706 107.643C92.0858 107.643 101.385 106.01 109.755 102.751C118.124 99.486 124.755 95.035 129.646 89.3773C134.537 83.7266 137.092 77.4158 137.312 70.4589H53.3263V56.1122H158.992V120.69H140.564L139.094 97.044H138.931C135.019 102.588 129.937 107.401 123.683 111.476C117.429 115.551 110.308 118.731 102.315 121.017C94.3219 123.303 85.7608 124.445 76.6317 124.445H76.6459Z" fill="#2D2D2D"/>
<path d="M172.856 120.69V5.07178H195.523V102.751H269.393V120.69H172.856Z" fill="#2D2D2D"/>
<path d="M348.488 124.772C332.721 124.772 318.722 122.16 306.498 116.942C294.267 111.724 284.811 104.441 278.124 95.0919C271.437 85.7427 268.094 75.0306 268.094 62.9626C268.094 50.8946 271.437 40.1896 278.124 30.8334C284.811 21.4843 294.267 14.1725 306.498 8.89807C318.73 3.62365 332.728 0.98999 348.488 0.98999C364.247 0.98999 378.246 3.62365 390.477 8.89807C402.709 14.1725 412.193 21.4843 418.929 30.8334C425.666 40.1825 429.038 50.8876 429.038 62.9626C429.038 75.0377 425.666 85.7356 418.929 95.0919C412.185 104.441 402.701 111.724 390.477 116.942C378.246 122.16 364.247 124.772 348.488 124.772ZM348.488 107.323C359.789 107.323 369.82 105.449 378.573 101.694C387.325 97.9456 394.147 92.6996 399.038 85.9557C403.93 79.2189 406.379 71.5522 406.379 62.9626C406.379 54.3731 403.93 46.7347 399.038 40.0477C394.147 33.3606 387.325 28.1429 378.573 24.3948C369.82 20.6466 359.789 18.7725 348.488 18.7725C337.186 18.7725 327.177 20.6466 318.481 24.3948C309.785 28.15 302.963 33.3677 298.015 40.0477C293.067 46.7347 290.59 54.3731 290.59 62.9626C290.59 71.5522 293.06 79.2118 298.015 85.9557C302.963 92.6996 309.778 97.9456 318.481 101.694C327.177 105.449 337.179 107.323 348.488 107.323Z" fill="#2D2D2D"/>
<path d="M564.228 123.956C560.317 123.956 556.895 123.246 553.956 121.833C551.017 120.42 548.547 118.518 546.531 116.126C544.522 113.733 542.591 110.965 540.745 107.813L532.099 89.0578C530.147 84.9263 527.534 81.6964 524.276 79.3538C521.01 77.0111 517.319 75.8469 513.187 75.8469H466.058V120.69H443.392V5.07178H531.453C540.369 5.07178 548.142 6.45605 554.772 9.23168C561.403 12.0073 566.514 16.0252 570.099 21.2997C573.684 26.5741 575.48 32.6933 575.48 39.643C575.48 45.4072 574.095 50.5681 571.32 55.1326C568.544 59.6971 564.547 63.3956 559.33 66.221C554.112 69.0463 547.972 70.8423 540.901 71.6019V71.7651C543.613 73.1778 546.012 75.0306 548.071 77.3093C550.137 79.5951 551.826 82.3637 553.125 85.622L561.119 102.091C562.311 104.377 563.561 106.116 564.867 107.309C566.173 108.509 567.855 109.105 569.921 109.105C571.767 109.105 573.534 108.537 575.217 107.394C576.899 106.251 578.34 104.704 579.54 102.744L586.39 113.506C583.778 116.658 580.52 119.185 576.608 121.088C572.697 122.99 568.565 123.941 564.214 123.941L564.228 123.956ZM526.562 60.1941C531.779 60.1941 536.372 59.3777 540.34 57.745C544.309 56.1122 547.347 53.8619 549.47 50.9798C551.592 48.1048 552.65 44.7044 552.65 40.7859C552.65 36.8674 551.592 33.4244 549.47 30.4287C547.347 27.4401 544.33 25.1543 540.419 23.5784C536.507 22.0024 531.879 21.2145 526.555 21.2145H466.051V60.187H526.555L526.562 60.1941Z" fill="#2D2D2D"/>
<path d="M594.561 120.69V5.07178H617.064V120.69H594.561Z" fill="#2D2D2D"/>
<path d="M741.4 61.1311L712.622 5.07178H686.036L625.86 120.69H649.506L662.554 95.4184H735.125L741.4 107.43V61.1311ZM669.248 79.6022L698.928 21.5481H699.255L728.608 79.6022H669.248Z" fill="#2D2D2D"/>
</svg>
